<svg width="19" height="19" viewBox="0 0 19 19" fill="none" xmlns="http://www.w3.org/2000/svg">
<path fill-rule="evenodd" clip-rule="evenodd" d="M17.7626 4.98979C16.3489 2.04026 13.4017 0.00753784 9.4702 0.00753784C3.85551 0.00753784 0.353516 4.15342 0.353516 9.19476C0.353516 12.4132 1.73305 15.2436 4.20056 16.8843C4.34116 16.779 4.42584 16.7108 4.42584 16.7108C5.6566 15.9077 6.85725 15.0624 8.02576 14.1765C5.82437 13.5287 4.71269 11.4223 4.71269 9.19476C4.71269 6.5498 6.36014 3.97496 9.50206 3.97496C12.269 3.97496 14.0793 6.26862 14.274 8.75007C15.4868 7.54637 16.6508 6.29202 17.7626 4.98979ZM9.06013 18.3736C12.5418 15.9057 15.7611 13.0866 18.6652 9.96305C18.3328 14.6795 14.9335 18.382 9.50525 18.382C9.3553 18.382 9.20692 18.3791 9.06013 18.3736Z" fill="#8DD3BB"/>
</svg>
